<svg xmlns="http://www.w3.org/2000/svg" viewBox="0 0 64 64"><title>rust-finland</title><ellipse cx="32" cy="32" rx="25.3161" ry="25.3277" style="fill:#fff"/><path d="M61.5921,31.254,59.0354,29.67c-.02-.23-.0389-.4609-.0641-.69L61.1646,26.93a.8619.8619,0,0,0-.2864-1.4366L58.07,24.44c-.0648-.2242-.128-.4491-.1983-.6709l1.7494-2.4353a.8621.8621,0,0,0-.56-1.3531l-2.9642-.4839c-.1078-.2078-.215-.4156-.3279-.62l1.2442-2.7318a.8616.8616,0,0,0-.0679-.8358.8312.8312,0,0,0-.7469-.3824l-3.0053.1062c-.1442-.18-.29-.3593-.4383-.5358l.69-2.93a.8623.8623,0,0,0-1.0363-1.0363l-2.9279.69c-.1764-.1487-.3555-.2942-.5356-.4385l.1074-3.0071a.8619.8619,0,0,0-1.2186-.8147l-2.73,1.2452c-.2044-.1129-.4121-.22-.62-.328L44,4.9132a.8609.8609,0,0,0-1.3525-.5611l-2.434,1.75c-.2217-.07-.4466-.1334-.6708-.1983L38.4907,3.0953a.8615.8615,0,0,0-1.436-.286L35.0056,5.0031c-.2289-.0253-.4595-.0448-.69-.0643L32.7324,2.381a.8944.8944,0,0,0-1.4648,0L29.6845,4.9388c-.2306.02-.4611.039-.69.0643L26.9453,2.8093a.8615.8615,0,0,0-1.436.286l-1.0518,2.809c-.2242.0648-.449.1279-.6708.1983l-2.434-1.75A.8609.8609,0,0,0,20,4.9132l-.4841,2.9656c-.2076.1078-.4153.215-.62.328l-2.73-1.2453a.8619.8619,0,0,0-1.2186.8147l.1074,3.0072c-.18.1443-.359.29-.5354.4384l-2.9281-.69a.8623.8623,0,0,0-1.0363,1.0363l.69,2.93c-.1486.1764-.2939.3554-.438.5355l-3.0056-.1062a.8618.8618,0,0,0-.8148,1.2182l1.2443,2.7321c-.1128.2044-.22.4122-.3277.62l-2.9645.4839a.8621.8621,0,0,0-.56,1.3531l1.75,2.4355c-.07.2218-.1334.4465-.1982.6707L3.1228,25.493A.862.862,0,0,0,2.8364,26.93l2.1927,2.05c-.0253.2291-.0447.46-.0643.6906L2.4079,31.254a.8621.8621,0,0,0,0,1.4655l2.5569,1.5833c.02.2308.039.4615.0643.6907L2.8364,37.0443a.8617.8617,0,0,0,.2864,1.4362L5.93,39.5328c.0647.2242.1279.4489.1982.6706l-1.75,2.4355a.8622.8622,0,0,0,.56,1.3532l2.9645.4839c.1077.2076.2148.4154.3277.62L6.9868,47.8279a.8617.8617,0,0,0,.0679.8358.8475.8475,0,0,0,.7469.3823l3.0055-.1061c.1442.18.29.3591.4381.5355l-.69,2.93a.8622.8622,0,0,0,1.0363,1.0363l2.9281-.69c.1763.1487.3553.2941.5354.4384l-.1074,3.0072a.8619.8619,0,0,0,1.2186.8146l2.73-1.2452c.2044.1129.412.22.62.328L20,59.06a.861.861,0,0,0,1.3525.5611l2.434-1.7505c.2218.07.4465.1334.6707.1983l1.0519,2.81a.8616.8616,0,0,0,.6386.5426.852.852,0,0,0,.7974-.2566l2.05-2.1943c.2287.0253.459.0447.6894.0642l1.5833,2.5578a.8613.8613,0,0,0,1.4648,0l1.5833-2.5577c.23-.02.4607-.039.69-.0642l2.0495,2.1942a.8615.8615,0,0,0,1.436-.286l1.0518-2.8095c.2242-.0648.4491-.1279.6708-.1983l2.434,1.7505A.861.861,0,0,0,44,59.06l.4841-2.9655c.2076-.1078.4153-.2151.62-.3281l2.73,1.2452a.8619.8619,0,0,0,1.2186-.8146l-.1074-3.007c.18-.1444.3592-.29.5356-.4386l2.9279.69a.8622.8622,0,0,0,1.0363-1.0363l-.69-2.9295c.1487-.1764.2941-.3556.4384-.5358l3.0052.1061a.8234.8234,0,0,0,.7469-.3823.8617.8617,0,0,0,.0679-.8358L55.769,45.0961c.113-.2046.22-.4125.328-.62l2.9641-.4838a.8622.8622,0,0,0,.56-1.3532l-1.7494-2.4352c.07-.2218.1335-.4466.1983-.6709l2.8078-1.0523a.8616.8616,0,0,0,.2864-1.4362l-2.1933-2.0514c.0252-.2289.0446-.4592.0641-.69l2.5567-1.5837a.8621.8621,0,0,0,0-1.4655Zm-17.71,15.1391a1.6081,1.6081,0,0,0-1.9289,1.2526l-.78,3.6961-.1027.4864a21.9819,21.9819,0,0,1-18.3346-.1062c-.89-4.157.0018.0082-.8928-4.1687a1.6239,1.6239,0,0,0-1.9292-1.2522l-3.6774.79a21.9327,21.9327,0,0,1-6.2115-15.3181,22.274,22.274,0,0,1,.1254-2.343l3.8544-1.726a1.6,1.6,0,0,0,.8226-2.1485l-1.5437-3.4475c-.1782-.3982-.3341-.7461-.4719-1.054a22.0163,22.0163,0,0,1,15.09-10.8958c2.6152,2.7478-.1133-.119,2.7655,2.9056a1.5988,1.5988,0,0,0,2.2989.059L35.7,10.5165l.3864-.3683a22.0119,22.0119,0,0,1,15.027,10.7026l-.4024.9062-1.7356,3.9083a1.6,1.6,0,0,0,.8232,2.1482L53.25,29.3462l.6624.2942c.0675.7019.1046,1.4126.1046,2.1322A21.936,21.936,0,0,1,47.7,47.2009ZM46.911,50.43a1.7856,1.7856,0,1,1-1.7856-1.7864A1.786,1.786,0,0,1,46.911,50.43Zm-26.4392-.08a1.786,1.786,0,1,1-1.786-1.7869A1.7864,1.7864,0,0,1,20.4718,50.35ZM8.8329,25.1961a1.7856,1.7856,0,1,1,1.7856,1.7864A1.786,1.786,0,0,1,8.8329,25.1961Zm21.29-16.1639a1.786,1.786,0,1,1,1.786,1.7868A1.7864,1.7864,0,0,1,30.1226,9.0322Zm23.07,18.0308a1.7865,1.7865,0,1,1,1.7857-1.7865A1.7861,1.7861,0,0,1,53.1923,27.063Z"/><path d="M52.3926,31.9873c0-.501-.04-.9921-.0752-1.4842l-3.1026-1.3776a3.0307,3.0307,0,0,1-1.5527-4.043l1.6786-3.7773a20.4314,20.4314,0,0,0-13.1433-9.28l-2.2413,2.1361a3.0332,3.0332,0,0,1-4.3291-.1084s-1.134-1.1915-1.9093-2.0058a20.4321,20.4321,0,0,0-13.1515,9.411l1.5705,3.5089a3.0355,3.0355,0,0,1-1.5449,4.0469c-1.79.8012-1.9629.8784-1.9629.8784l.0049-.002-.9415.4218c-.0453.5538-.0849,1.11-.0849,1.6749a20.3117,20.3117,0,0,0,4.6478,12.95l.029.0352c.1538.186.3262.355.4864.5354.7159-.1541.955-.205,1.0468-.2227l-.0459.0078,1.8408-.3955a3.0592,3.0592,0,0,1,3.6357,2.3549c.3057,1.4278.4161,1.9463.4571,2.1748l-.0078-.0751.29,1.3564a20.5506,20.5506,0,0,0,15.832.0962l.73-3.4566A3.03,3.03,0,0,1,43.5322,44.92a3.1439,3.1439,0,0,1,.6475.0679c1.7705.3746,2.7033.5721,2.9538.6252A20.3,20.3,0,0,0,52.3926,31.9873ZM29.56,47.2949A15.5269,15.5269,0,0,1,16.7,34.4282H29.56Zm0-17.7485H16.7A15.527,15.527,0,0,1,29.56,16.68ZM34.44,16.68A15.527,15.527,0,0,1,47.3,29.5464H34.44Zm0,30.6152V34.4282H47.3A15.5269,15.5269,0,0,1,34.44,47.2949Z" style="fill:#4a90e2"/></svg>